HIERARCHY
ROOT Hips
{
	OFFSET 0.000000 0.000000 0.000000
	CHANNELS 6 Xposition Yposition Zposition Zrotation Yrotation Xrotation 
	JOINT LHipJoint
	{
		OFFSET 0.000000 0.000000 0.000000
		CHANNELS 3 Zrotation Yrotation Xrotation
		JOINT LeftUpLeg
		{
			OFFSET 1.363060 -1.794630 0.839290
			CHANNELS 3 Zrotation Yrotation Xrotation
			JOINT LeftLeg
			{
				OFFSET 2.448110 -6.726130 0.000000
				CHANNELS 3 Zrotation Yrotation Xrotation
				JOINT LeftFoot
				{
					OFFSET 2.562200 -7.039590 0.000000
					CHANNELS 3 Zrotation Yrotation Xrotation
					JOINT LeftToeBase
					{
						OFFSET 0.157640 -0.433110 2.322550
						CHANNELS 3 Zrotation Yrotation Xrotation
						End Site
						{
							OFFSET 0.000000 0.000000 0.000000
						}
					}
				}
			}
		}
	}
	JOINT RHipJoint
	{
		OFFSET 0.000000 0.000000 0.000000
		CHANNELS 3 Zrotation Yrotation Xrotation
		JOINT RightUpLeg
		{
			OFFSET -1.305520 -1.794630 0.839290
			CHANNELS 3 Zrotation Yrotation Xrotation
			JOINT RightLeg
			{
				OFFSET -2.542530 -6.985550 0.000000
				CHANNELS 3 Zrotation Yrotation Xrotation
				JOINT RightFoot
				{
					OFFSET -2.568260 -7.056230 0.000000
					CHANNELS 3 Zrotation Yrotation Xrotation
					JOINT RightToeBase
					{
						OFFSET -0.164730 -0.452590 2.363150
						CHANNELS 3 Zrotation Yrotation Xrotation
						End Site
						{
							OFFSET 0.000000 0.000000 0.000000
						}
					}
				}
			}
		}
	}
	JOINT LowerBack
	{
		OFFSET 0.000000 0.000000 0.000000
		CHANNELS 3 Zrotation Yrotation Xrotation
		JOINT Spine
		{
			OFFSET 0.028270 2.035590 -0.193380
			CHANNELS 3 Zrotation Yrotation Xrotation
			JOINT Spine1
			{
				OFFSET 0.056720 2.048850 -0.042750
				CHANNELS 3 Zrotation Yrotation Xrotation
				JOINT Neck
				{
					OFFSET 0.000000 0.000000 0.000000
					CHANNELS 3 Zrotation Yrotation Xrotation
					JOINT Neck1
					{
						OFFSET -0.054170 1.746240 0.172020
						CHANNELS 3 Zrotation Yrotation Xrotation
						JOINT Head
						{
							OFFSET 0.104070 1.761360 -0.123970
							CHANNELS 3 Zrotation Yrotation Xrotation
							End Site
							{
								OFFSET 0.000000 0.000000 0.000000
							}
						}
					}
				}
				JOINT LeftShoulder
				{
					OFFSET 0.000000 0.000000 0.000000
					CHANNELS 3 Zrotation Yrotation Xrotation
					JOINT LeftArm
					{
						OFFSET 3.362410 1.200890 -0.311210
						CHANNELS 3 Zrotation Yrotation Xrotation
						JOINT LeftForeArm
						{
							OFFSET 4.983000 -0.000000 -0.000000
							CHANNELS 3 Zrotation Yrotation Xrotation
							JOINT LeftHand
							{
								OFFSET 3.483560 -0.000000 -0.000000
								CHANNELS 3 Zrotation Yrotation Xrotation
								JOINT LeftFingerBase
								{
									OFFSET 0.000000 0.000000 0.000000
									CHANNELS 3 Zrotation Yrotation Xrotation
									JOINT LeftHandIndex1
									{
										OFFSET 0.715260 -0.000000 -0.000000
										CHANNELS 3 Zrotation Yrotation Xrotation
										End Site
										{
											OFFSET 0.000000 0.000000 0.000000
										}
									}
								}
								JOINT LThumb
								{
									OFFSET 0.000000 0.000000 0.000000
									CHANNELS 3 Zrotation Yrotation Xrotation
									End Site
									{
										OFFSET 0.000000 0.000000 0.000000
									}
								}
							}
						}
					}
				}
				JOINT RightShoulder
				{
					OFFSET 0.000000 0.000000 0.000000
					CHANNELS 3 Zrotation Yrotation Xrotation
					JOINT RightArm
					{
						OFFSET -3.136600 1.374050 -0.404650
						CHANNELS 3 Zrotation Yrotation Xrotation
						JOINT RightForeArm
						{
							OFFSET -5.241900 -0.000000 -0.000000
							CHANNELS 3 Zrotation Yrotation Xrotation
							JOINT RightHand
							{
								OFFSET -3.444170 -0.000000 -0.000000
								CHANNELS 3 Zrotation Yrotation Xrotation
								JOINT RightFingerBase
								{
									OFFSET 0.000000 0.000000 0.000000
									CHANNELS 3 Zrotation Yrotation Xrotation
									JOINT RightHandIndex1
									{
										OFFSET -0.622530 -0.000000 -0.000000
										CHANNELS 3 Zrotation Yrotation Xrotation
										End Site
										{
											OFFSET 0.000000 0.000000 0.000000
										}
									}
								}
								JOINT RThumb
								{
									OFFSET 0.000000 0.000000 0.000000
									CHANNELS 3 Zrotation Yrotation Xrotation
									End Site
									{
										OFFSET 0.000000 0.000000 0.000000
									}
								}
							}
						}
					}
				}
			}
		}
	}
}
MOTION
Frames: 11
Frame Time: 0.008333
-1.363230 17.855795 23.192902 -179.302243 -1.398712 -153.003891 8.927596 1.316621 -1.937111 -26.583360 -15.799225 -18.930570 -1.239377 4.185565 8.996676 0.155950 -4.634743 -14.978721 4.541100 -12.847500 -38.800400 -13.588459 -2.837365 -1.268639 32.719867 18.198640 -19.191588 1.138233 -4.262944 8.873971 -0.696172 4.932078 -17.314489 -0.377100 3.943800 -10.918700 -2.256198 -0.543850 -24.577922 1.961995 -1.851861 -5.633277 -0.036659 -1.891992 13.230259 -8.646240 -5.613613 -3.167460 9.665448 -8.464489 25.567581 0.957100 -2.443100 5.668700 16.080408 -0.888125 0.441118 -105.973889 -3.012254 21.616384 12.429102 -14.361457 -2.062166 -1.788103 0.962054 3.243264 20.339994 -11.934357 -5.124700 -7.125000 0.000000 0.000000 -3.528200 16.307200 2.400200 -11.030918 0.051367 -0.114408 99.781821 -6.386519 11.588067 -15.992119 27.635948 -5.090119 0.295474 4.152519 -4.977976 -13.391765 -51.364897 11.640700 7.125000 0.000000 0.000000 76.013300 -77.004300 -62.740100 
-1.348754 17.854040 23.191037 -179.034437 -1.419751 -153.108815 8.919144 1.314206 -1.958535 -26.138430 -15.678712 -18.889166 -1.244888 4.173343 9.000266 0.174220 -4.528987 -14.996561 4.493900 -12.790200 -38.588000 -13.627526 -2.812154 -1.234751 33.044417 18.721729 -18.942265 1.165455 -4.259067 8.853492 -0.720412 4.436940 -17.516009 -0.391600 4.018400 -11.128300 -2.143191 -0.547691 -24.509121 2.021466 -1.903355 -5.613443 0.083829 -1.917619 13.287605 -8.603823 -5.641845 -3.269772 9.502844 -8.435635 25.624047 0.892100 -2.431600 5.700100 16.086415 -0.881206 0.441892 -106.022667 -3.134304 21.127189 12.445860 -14.387753 -2.067070 -1.732594 0.940455 3.826971 19.985382 -11.581081 -4.874100 -7.125000 0.000000 0.000000 -3.791300 16.756100 2.542900 -11.006969 0.080954 -0.113209 99.710262 -6.351962 11.711572 -16.010085 27.648380 -5.094438 0.280935 4.148438 -5.044163 -13.216625 -51.260761 11.471500 7.125000 0.000000 0.000000 75.577500 -76.922300 -62.230700 
-1.361695 17.858317 23.198276 -179.204175 -1.440034 -152.997683 8.926434 1.310872 -1.938592 -26.404651 -15.843270 -19.007009 -1.240521 4.210406 9.045535 0.161202 -4.563385 -14.935133 4.484200 -12.778300 -38.544000 -13.599340 -2.832828 -1.267201 32.838020 18.206284 -19.282801 1.140583 -4.306571 8.961958 -0.700724 4.879790 -17.372762 -0.422700 4.172900 -11.563700 -2.160746 -0.564781 -24.560845 1.991303 -1.908476 -5.623517 -0.036833 -1.920427 13.285494 -8.641001 -5.705997 -3.365561 9.546493 -8.514890 25.733407 0.917000 -2.462000 5.766100 16.071828 -0.885315 0.435057 -105.988079 -3.247919 21.075230 12.416175 -14.331798 -2.054656 -1.701915 0.935573 3.787228 19.699770 -11.532731 -4.778500 -7.125000 0.000000 0.000000 -4.009700 16.836000 2.683200 -11.024437 0.091345 -0.117205 99.729760 -6.332539 11.733009 -16.012162 27.660566 -5.097386 0.271447 4.149773 -5.092300 -13.138024 -51.353510 11.413500 7.125000 0.000000 0.000000 75.998700 -76.901900 -62.613400 
-1.347657 17.856453 23.192792 -178.987693 -1.426076 -153.113291 8.926408 1.311745 -1.955106 -26.060564 -15.810914 -18.861200 -1.248582 4.175746 9.000331 0.185926 -4.376652 -14.903755 4.445300 -12.730500 -38.368000 -13.631210 -2.813215 -1.237581 33.124719 18.685164 -18.992301 1.163169 -4.276582 8.888658 -0.715712 4.488906 -17.483949 -0.433000 4.222800 -11.704300 -2.110393 -0.524850 -24.482003 2.015590 -1.880316 -5.609857 0.050544 -1.903564 13.276872 -8.520583 -5.637839 -3.186013 9.529597 -8.462553 25.540480 0.881200 -2.445000 5.649300 16.084202 -0.905287 0.443388 -105.942316 -3.263965 21.315978 12.383001 -14.274788 -2.040387 -1.718382 0.916579 3.495856 19.763570 -11.425943 -4.751500 -7.125000 0.000000 0.000000 -3.953300 16.954600 2.635000 -11.006899 0.081289 -0.110309 99.801334 -6.384368 11.634547 -16.037491 27.684391 -5.107114 0.265900 4.158987 -5.006153 -13.018297 -51.550822 11.332000 7.125000 0.000000 0.000000 76.916600 -76.875700 -63.470200 
-1.361805 17.857221 23.200689 -179.082476 -1.527307 -153.149863 8.916772 1.329917 -1.929932 -26.292727 -15.805779 -18.835588 -1.238555 4.174659 8.995739 0.152426 -4.599210 -14.859617 4.426800 -12.707700 -38.283800 -13.607718 -2.845174 -1.276393 33.094515 18.174871 -19.026223 1.142074 -4.250266 8.875328 -0.697524 4.882480 -17.306981 -0.393800 4.029500 -11.159600 -1.996486 -0.567681 -24.315299 2.009039 -1.953367 -5.623946 -0.107931 -1.933131 13.167348 -8.509224 -5.659466 -3.481298 9.339351 -8.331385 26.107463 0.844700 -2.328800 5.911200 16.085916 -0.854792 0.431554 -105.987281 -3.233069 21.639087 12.397197 -14.268535 -2.039920 -1.769981 0.882467 2.876459 20.081767 -11.304883 -4.783300 -7.125000 0.000000 0.000000 -3.697900 17.072000 2.454500 -11.028443 0.143309 -0.110285 99.833015 -6.434353 11.616050 -16.099025 27.776607 -5.141682 0.260977 4.160914 -4.853657 -12.822659 -51.770473 11.184000 7.125000 0.000000 0.000000 77.907200 -76.817900 -64.366700 
-1.349192 17.855356 23.194547 -179.167999 -1.384893 -153.137150 8.920779 1.325327 -1.953648 -26.346816 -15.625124 -18.844615 -1.241588 4.146617 8.935863 0.156278 -4.609815 -14.909761 4.472400 -12.763800 -38.490700 -13.617665 -2.814929 -1.243305 32.901393 18.640398 -18.959480 1.160771 -4.262408 8.873794 -0.716857 4.449143 -17.470235 -0.405500 4.088100 -11.324600 -2.282486 -0.595467 -24.417060 2.000593 -1.902442 -5.608884 0.064559 -1.920014 13.254088 -8.393772 -5.705700 -3.016832 9.424206 -8.563797 25.430551 0.810400 -2.504500 5.561900 16.093709 -0.915616 0.442453 -105.984161 -3.258242 21.813299 12.396679 -14.276904 -2.038964 -1.807162 0.880324 2.360995 20.296247 -11.462567 -4.907900 -7.125000 0.000000 0.000000 -3.534600 16.870800 2.361200 -11.010436 0.075629 -0.109350 99.836941 -6.464798 11.709363 -16.123391 27.792519 -5.149096 0.250726 4.176984 -4.821930 -12.699152 -52.046879 11.108500 7.125000 0.000000 0.000000 79.183000 -76.789900 -65.579100 
-1.361914 17.856124 23.202005 -179.168135 -1.524201 -153.161284 8.915506 1.329470 -1.937132 -26.417013 -15.724127 -18.829684 -1.236466 4.166012 8.979394 0.145225 -4.688267 -14.910392 4.446700 -12.732300 -38.374300 -13.599830 -2.845574 -1.276764 32.962313 18.204422 -19.004615 1.149582 -4.246589 8.869386 -0.712146 4.678400 -17.420759 -0.413800 4.129300 -11.440700 -2.093531 -0.596303 -24.346614 2.005031 -1.950642 -5.601477 -0.080281 -1.927778 13.268611 -8.315916 -5.865979 -3.094309 9.434437 -8.781303 25.470857 0.789500 -2.606700 5.593900 16.091038 -0.917109 0.434914 -106.009372 -3.357429 21.959451 12.375816 -14.229812 -2.028116 -1.844627 0.916596 1.966093 20.544275 -11.856367 -5.151000 -7.125000 0.000000 0.000000 -3.358500 16.376300 2.279300 -11.016712 0.084999 -0.116101 99.791001 -6.367597 11.756133 -16.088922 27.755902 -5.131799 0.232671 4.194469 -4.822055 -12.487888 -52.432673 10.966900 7.125000 0.000000 0.000000 80.930100 -76.726100 -67.223600 
-1.353140 17.857550 23.200469 -179.121500 -1.488349 -153.190499 8.912449 1.326658 -1.947897 -26.294588 -15.693786 -18.805065 -1.239622 4.157202 8.967686 0.154585 -4.647946 -14.947410 4.412600 -12.690000 -38.219000 -13.619938 -2.820752 -1.255827 32.972549 18.566484 -18.887236 1.166380 -4.240107 8.838727 -0.728422 4.356224 -17.561280 -0.428100 4.199300 -11.637900 -2.164723 -0.636939 -24.369292 2.033977 -1.984083 -5.587690 0.072142 -1.956650 13.345862 -8.669722 -5.744575 -3.403107 9.491751 -8.545692 25.746294 0.898900 -2.484300 5.775200 16.074665 -0.900471 0.435923 -106.050179 -3.423109 21.837051 12.373554 -14.224685 -2.027604 -1.843672 0.952432 2.221317 20.606433 -12.053557 -5.257300 -7.125000 0.000000 0.000000 -3.322900 16.130300 2.272800 -11.015387 0.112465 -0.112568 99.708556 -6.314566 11.825281 -16.077994 27.735607 -5.121317 0.216825 4.211998 -4.767808 -12.260731 -52.739237 10.799100 7.125000 0.000000 0.000000 82.327400 -76.644700 -68.515500 
-1.364437 17.861936 23.208695 -179.292316 -1.474332 -153.060979 8.913619 1.322075 -1.928573 -26.532942 -15.811924 -18.958649 -1.238105 4.187543 8.991907 0.147368 -4.671642 -14.937747 4.459000 -12.747300 -38.429800 -13.599268 -2.835621 -1.279892 32.749761 18.121074 -19.247672 1.140675 -4.294780 8.955260 -0.704999 4.814272 -17.387993 -0.444300 4.276800 -11.856800 -2.217304 -0.691672 -24.404006 2.035445 -2.043666 -5.614150 0.046595 -1.991084 13.287437 -8.746729 -5.619282 -3.561013 9.370453 -8.270507 26.072429 0.902400 -2.322700 5.923100 16.070184 -0.875937 0.433587 -106.116104 -3.443494 21.396388 12.401633 -14.269029 -2.040260 -1.791707 0.969259 3.202799 20.384411 -11.888602 -5.122400 -7.125000 0.000000 0.000000 -3.493400 16.341700 2.373800 -11.021412 0.156287 -0.109986 99.615742 -6.333328 11.949722 -16.103164 27.777986 -5.140555 0.221444 4.247340 -4.792375 -12.544116 -53.357418 11.126400 7.125000 0.000000 0.000000 85.123300 -76.739200 -71.412400 
-1.352373 17.860072 23.206721 -179.068563 -1.446528 -153.152463 8.907191 1.324575 -1.943663 -26.183281 -15.685933 -18.893709 -1.245655 4.161516 8.960437 0.169675 -4.515719 -14.925728 4.514000 -12.814700 -38.678700 -13.623066 -2.828441 -1.257684 33.041323 18.397756 -19.112823 1.149873 -4.311073 8.990651 -0.710430 4.664840 -17.438146 -0.455200 4.328000 -12.001400 -2.137752 -0.663307 -24.330108 2.074515 -2.047462 -5.604649 0.162965 -1.986334 13.290572 -8.833746 -5.693554 -3.508710 9.542945 -8.441241 25.988470 0.960800 -2.413600 5.893000 16.075672 -0.891956 0.432491 -106.122610 -3.444975 21.323088 12.431413 -14.323124 -2.053098 -1.763608 0.929143 3.585858 20.211002 -11.466966 -4.888700 -7.125000 0.000000 0.000000 -3.610900 16.861200 2.413200 -11.011830 0.137803 -0.112266 99.608526 -6.376605 11.970897 -16.120161 27.795736 -5.149600 0.229036 4.261843 -4.758399 -12.705155 -53.569725 11.296800 7.125000 0.000000 0.000000 86.110200 -76.786500 -72.458700 
-1.360269 17.860840 23.211436 -179.108610 -1.471916 -153.141796 8.913878 1.320985 -1.935949 -26.282004 -15.784904 -18.897617 -1.243561 4.180020 8.998094 0.168620 -4.512067 -14.919227 4.479600 -12.772600 -38.523100 -13.606178 -2.846192 -1.271432 33.005133 18.145945 -19.208136 1.136512 -4.315518 9.009124 -0.697023 4.931953 -17.330960 -0.458300 4.342900 -12.043500 -2.038210 -0.633229 -24.278452 2.044406 -2.031946 -5.612823 -0.008950 -1.958193 13.214668 -8.578856 -5.790699 -3.085015 9.639018 -8.731987 25.452116 0.915000 -2.591800 5.610400 16.086875 -0.939036 0.431266 -106.026404 -3.394368 21.696168 12.472529 -14.393072 -2.075751 -1.633662 0.732320 3.159814 18.912914 -10.099510 -3.980800 -7.125000 0.000000 0.000000 -4.576100 18.610500 2.885700 -11.021850 0.083880 -0.115340 99.710716 -6.437739 11.960376 -16.135776 27.821663 -5.160214 0.230208 4.255311 -4.741588 -12.669940 -53.561714 11.264100 7.125000 0.000000 0.000000 86.041900 -76.774700 -72.376800 
